# xmcd
#
# Track frame offsets:
#	150
#	19846
#	32991
#	51435
#	66172
#	80945
#	96247
#	108543
#	120953
#	132411
#	146833
#	157225
#	170854
#	181373
#	196659
#	212537
#	223064
#	234702
#	253599
#
# Disc length: 3648 seconds
#
# Revision: 0
# Processed by: cddbd v1.5.1PL0 Copyright (c) Steve Scherf et al.
# Submitted via: dBpowerAMP V4.0
#
DISCID=290e3e13
DTITLE=Los Gedientos del Rock - Lo mas de los Gedes
DYEAR=1900
DGENRE=Undefined
TTITLE0=Altas Curvas
TTITLE1=Berretines de Verduga
TTITLE2=Hacela de Noche
TTITLE3=Soy un re Gede
TTITLE4=Dame un ayudin
TTITLE5=Se te va a escapar el guacho
TTITLE6=El tranza
TTITLE7=Papa Cruel
TTITLE8=Grupera vo' sos
TTITLE9=Nieve boliviana
TTITLE10=El borracho tutatuta
TTITLE11=Soy pata de lana
TTITLE12=Correla que va en chancletas
TTITLE13=Desde que me dejaste
TTITLE14=El viejo de la bolsa
TTITLE15=El borracho guarachero
TTITLE16=Pideme la frula
TTITLE17=Hacela de noche (remix)
TTITLE18=Altas curvas (remix)
EXTD=
EXTT0=
EXTT1=
EXTT2=
EXTT3=
EXTT4=
EXTT5=
EXTT6=
EXTT7=
EXTT8=
EXTT9=
EXTT10=
EXTT11=
EXTT12=
EXTT13=
EXTT14=
EXTT15=
EXTT16=
EXTT17=
EXTT18=
PLAYORDER=
